<svg xmlns="http://www.w3.org/2000/svg" version="1.1" xmlns:xlink="http://www.w3.org/1999/xlink" xmlns:svgjs="http://svgjs.com/svgjs" width="1440" height="667" preserveAspectRatio="none" viewBox="0 0 1440 667"><g mask="url(&quot;#SvgjsMask1002&quot;)" fill="none"><rect width="1440" height="667" x="0" y="0" fill="rgba(233, 218, 182, 1)"></rect><path d="M 0,294 C 72,243.8 216,39.2 360,43 C 504,46.8 576,308.2 720,313 C 864,317.8 936,95.8 1080,67 C 1224,38.2 1368,148.6 1440,169L1440 667L0 667z" fill="rgba(234, 227, 164, 1)"></path><path d="M 0,360 C 72,411.6 216,593.8 360,618 C 504,642.2 576,489.8 720,481 C 864,472.2 936,588.6 1080,574 C 1224,559.4 1368,441.2 1440,408L1440 667L0 667z" fill="rgba(203, 197, 140, 1)"></path></g><defs><mask id="SvgjsMask1002"><rect width="1440" height="667" fill="#ffffff"></rect></mask></defs></svg>